<svg width="37" height="37" viewBox="0 0 37 37" fill="none" xmlns="http://www.w3.org/2000/svg">
<path d="M13.1247 22.5313C12.4976 22.5313 11.9676 22.3148 11.5346 21.8818C11.1016 21.4488 10.8851 20.9188 10.8851 20.2917C10.8851 19.6646 11.1016 19.1346 11.5346 18.7016C11.9676 18.2686 12.4976 18.0521 13.1247 18.0521C13.7518 18.0521 14.2818 18.2686 14.7148 18.7016C15.1478 19.1346 15.3643 19.6646 15.3643 20.2917C15.3643 20.9188 15.1478 21.4488 14.7148 21.8818C14.2818 22.3148 13.7518 22.5313 13.1247 22.5313ZM23.8747 22.5313C23.2476 22.5313 22.7176 22.3148 22.2846 21.8818C21.8516 21.4488 21.6351 20.9188 21.6351 20.2917C21.6351 19.6646 21.8516 19.1346 22.2846 18.7016C22.7176 18.2686 23.2476 18.0521 23.8747 18.0521C24.5018 18.0521 25.0318 18.2686 25.4648 18.7016C25.8978 19.1346 26.1143 19.6646 26.1143 20.2917C26.1143 20.9188 25.8978 21.4488 25.4648 21.8818C25.0318 22.3148 24.5018 22.5313 23.8747 22.5313ZM18.4997 32.8334C22.5011 32.8334 25.8903 31.4448 28.6674 28.6677C31.4445 25.8907 32.833 22.5014 32.833 18.5C32.833 17.7834 32.7882 17.0891 32.6986 16.4172C32.6091 15.7454 32.4448 15.0959 32.2059 14.4688C31.5788 14.6181 30.9518 14.7301 30.3247 14.8047C29.6976 14.8794 29.0406 14.9167 28.3538 14.9167C25.6365 14.9167 23.0684 14.3344 20.6497 13.1698C18.2309 12.0052 16.1705 10.3778 14.4684 8.28754C13.5129 10.6167 12.1467 12.6398 10.37 14.3568C8.59325 16.0738 6.52537 17.3653 4.16634 18.2313V18.5C4.16634 22.5014 5.55488 25.8907 8.33197 28.6677C11.109 31.4448 14.4983 32.8334 18.4997 32.8334ZM18.4997 36.4167C16.0212 36.4167 13.692 35.9464 11.5122 35.0058C9.33231 34.0651 7.43613 32.7886 5.82363 31.1761C4.21113 29.5636 2.93457 27.6674 1.99395 25.4875C1.05332 23.3077 0.583008 20.9785 0.583008 18.5C0.583008 16.0216 1.05332 13.6924 1.99395 11.5125C2.93457 9.33268 4.21113 7.4365 5.82363 5.824C7.43613 4.2115 9.33231 2.93494 11.5122 1.99431C13.692 1.05369 16.0212 0.583374 18.4997 0.583374C20.9781 0.583374 23.3073 1.05369 25.4872 1.99431C27.667 2.93494 29.5632 4.2115 31.1757 5.824C32.7882 7.4365 34.0648 9.33268 35.0054 11.5125C35.946 13.6924 36.4163 16.0216 36.4163 18.5C36.4163 20.9785 35.946 23.3077 35.0054 25.4875C34.0648 27.6674 32.7882 29.5636 31.1757 31.1761C29.5632 32.7886 27.667 34.0651 25.4872 35.0058C23.3073 35.9464 20.9781 36.4167 18.4997 36.4167ZM16.0809 4.39067C17.3351 6.48094 19.0372 8.16063 21.1872 9.42973C23.3372 10.6988 25.7261 11.3334 28.3538 11.3334C28.7719 11.3334 29.175 11.311 29.5632 11.2662C29.9514 11.2214 30.3545 11.1691 30.7726 11.1094C29.5184 9.01914 27.8163 7.33945 25.6663 6.07035C23.5163 4.80126 21.1275 4.16671 18.4997 4.16671C18.0816 4.16671 17.6785 4.1891 17.2903 4.2339C16.9021 4.27869 16.499 4.33094 16.0809 4.39067ZM4.9278 13.9761C6.45072 13.1101 7.77954 11.9903 8.91426 10.6167C10.049 9.2431 10.9 7.70525 11.4674 6.00317C9.94447 6.86914 8.61565 7.98893 7.48092 9.36254C6.3462 10.7362 5.49516 12.274 4.9278 13.9761Z" fill="#BFBDB8"/>
</svg>
