<svg width="30" height="30" viewBox="0 0 36 39" fill="none" xmlns="http://www.w3.org/2000/svg">
<path d="M17.6522 38.0949L17.6484 33.8641L31.3497 33.85L31.3235 4.23478L17.6223 4.24892L17.6186 0.0181706L31.3198 0.00403388C32.3963 0.00292313 33.3182 0.416233 34.0856 1.24396C34.8529 2.07169 35.2371 3.06729 35.2382 4.23074L35.2643 33.846C35.2653 35.0094 34.8829 36.0058 34.117 36.8351C33.3511 37.6644 32.4299 38.0796 31.3534 38.0807L17.6522 38.0949ZM13.7301 29.6374L11.0361 26.5729L16.0225 21.1736L0.021372 21.1901L0.0176347 16.9593L16.0187 16.9428L11.0228 11.5538L13.7114 8.4837L23.5073 19.0505L13.7301 29.6374Z" fill="#D9D6D0"/>
</svg>
