<svg width="37" height="37" viewBox="0 0 37 37" fill="none" xmlns="http://www.w3.org/2000/svg">
<path d="M0.583008 14.9166C0.583008 11.9305 1.24742 9.1907 2.57624 6.6973C3.90506 4.2039 5.68926 2.13601 7.92884 0.493652L10.034 3.36032C8.24238 4.67421 6.81651 6.3315 5.75645 8.3322C4.69638 10.3329 4.16634 12.5277 4.16634 14.9166H0.583008ZM32.833 14.9166C32.833 12.5277 32.303 10.3329 31.2429 8.3322C30.1828 6.3315 28.757 4.67421 26.9653 3.36032L29.0705 0.493652C31.3101 2.13601 33.0943 4.2039 34.4231 6.6973C35.7519 9.1907 36.4163 11.9305 36.4163 14.9166H32.833ZM4.16634 31.0416V27.4582H7.74967V14.9166C7.74967 12.4381 8.4962 10.2358 9.98926 8.3098C11.4823 6.38376 13.4233 5.12213 15.8122 4.5249V3.27074C15.8122 2.52421 16.0735 1.88966 16.596 1.36709C17.1186 0.84452 17.7531 0.583236 18.4997 0.583236C19.2462 0.583236 19.8808 0.84452 20.4033 1.36709C20.9259 1.88966 21.1872 2.52421 21.1872 3.27074V4.5249C23.5761 5.12213 25.517 6.38376 27.0101 8.3098C28.5031 10.2358 29.2497 12.4381 29.2497 14.9166V27.4582H32.833V31.0416H4.16634ZM18.4997 36.4166C17.5143 36.4166 16.6707 36.0657 15.9689 35.364C15.2672 34.6622 14.9163 33.8187 14.9163 32.8332H22.083C22.083 33.8187 21.7321 34.6622 21.0304 35.364C20.3287 36.0657 19.4851 36.4166 18.4997 36.4166ZM11.333 27.4582H25.6663V14.9166C25.6663 12.9457 24.9646 11.2586 23.5611 9.85511C22.1577 8.45164 20.4705 7.7499 18.4997 7.7499C16.5288 7.7499 14.8417 8.45164 13.4382 9.85511C12.0347 11.2586 11.333 12.9457 11.333 14.9166V27.4582Z" fill="#BFBDB8"/>
</svg>
