<svg width="37" height="34" viewBox="0 0 37 34" fill="none" xmlns="http://www.w3.org/2000/svg">
<path d="M18.5002 33.625L15.9022 31.2958C12.8863 28.5785 10.3929 26.2344 8.42204 24.2635C6.4512 22.2927 4.8835 20.5234 3.71891 18.9557C2.55433 17.388 1.74061 15.9472 1.27777 14.6333C0.81492 13.3195 0.583496 11.9757 0.583496 10.6021C0.583496 7.79515 1.52412 5.45105 3.40537 3.5698C5.28662 1.68855 7.63072 0.747925 10.4377 0.747925C11.9904 0.747925 13.4686 1.0764 14.872 1.73334C16.2755 2.39029 17.4849 3.31598 18.5002 4.51043C19.5154 3.31598 20.7248 2.39029 22.1283 1.73334C23.5318 1.0764 25.0099 0.747925 26.5627 0.747925C29.3696 0.747925 31.7137 1.68855 33.595 3.5698C35.4762 5.45105 36.4168 7.79515 36.4168 10.6021C36.4168 11.9757 36.1854 13.3195 35.7226 14.6333C35.2597 15.9472 34.446 17.388 33.2814 18.9557C32.1168 20.5234 30.5491 22.2927 28.5783 24.2635C26.6075 26.2344 24.1141 28.5785 21.0981 31.2958L18.5002 33.625ZM18.5002 28.7875C21.3668 26.2195 23.7259 24.0172 25.5772 22.1807C27.4286 20.3443 28.8918 18.7467 29.9668 17.388C31.0418 16.0293 31.7884 14.82 32.2064 13.7599C32.6245 12.6998 32.8335 11.6472 32.8335 10.6021C32.8335 8.81042 32.2363 7.31737 31.0418 6.12292C29.8474 4.92848 28.3543 4.33126 26.5627 4.33126C25.1592 4.33126 23.8602 4.72692 22.6658 5.51824C21.4713 6.30956 20.6502 7.31737 20.2022 8.54167H16.7981C16.3502 7.31737 15.529 6.30956 14.3345 5.51824C13.1401 4.72692 11.8411 4.33126 10.4377 4.33126C8.646 4.33126 7.15294 4.92848 5.9585 6.12292C4.76405 7.31737 4.16683 8.81042 4.16683 10.6021C4.16683 11.6472 4.37586 12.6998 4.79391 13.7599C5.21197 14.82 5.9585 16.0293 7.0335 17.388C8.1085 18.7467 9.57169 20.3443 11.4231 22.1807C13.2745 24.0172 15.6335 26.2195 18.5002 28.7875Z" fill="#D9D6D0"/>
</svg>
